# xmcd CD database file
#
# Track frame offsets:
#	150
#	14728
#	34365
#	46318
#	60194
#	76775
#	93320
#	103712
#	121989
#	139156
#	153854
#	173670
#
# Disc length: 2563 seconds
#
# Revision: 0
# Processed by: cddbd v1.5.1PL2 Copyright (c) Steve Scherf et al.
# Submitted via: CDex 1.51
#
DISCID=8f0a010c
DTITLE=Tiago Silva - Vira dos Carros Velhos
DYEAR=1900
DGENRE=Blues
TTITLE0=Toca Aqui Amelia
TTITLE1=Vira Dos Carros Velhos
TTITLE2=Casamento Enganado
TTITLE3=As Mulheres e a Misica
TTITLE4=Para o Meu Sobrinho
TTITLE5=Desemprego Profissional
TTITLE6=O Snooker
TTITLE7=Foi na Praia Fluvial
TTITLE8=Minha Mae Obrigado
TTITLE9=Parabens Mulher Portuguesa
TTITLE10=Padroeira da Minha Terra
TTITLE11=20 Anos
EXTD=
EXTT0=
EXTT1=
EXTT2=
EXTT3=
EXTT4=
EXTT5=
EXTT6=
EXTT7=
EXTT8=
EXTT9=
EXTT10=
EXTT11=
PLAYORDER=
